<svg width="122" height="93" viewBox="0 0 122 93" fill="none" xmlns="http://www.w3.org/2000/svg">
<path fill-rule="evenodd" clip-rule="evenodd" d="M61 16V16C60.5365 16 60.154 15.632 60.1455 15.1686L59.8881 1.14293C59.8766 0.517442 60.3744 0 61 0V0V0C61.6256 0 62.1234 0.517449 62.1119 1.14294L61.8545 15.1686C61.846 15.632 61.4635 16 61 16V16ZM57.5973 15.2915C57.6312 15.7505 57.2848 16.1494 56.8265 16.1917V16.1917C56.3682 16.2341 55.9578 15.9051 55.907 15.4477L54.3571 1.49673C54.2882 0.876529 54.7332 0.316996 55.3546 0.259592V0.259592C55.976 0.202188 56.5196 0.670438 56.5654 1.29276L57.5973 15.2915ZM66.093 15.4477C66.0422 15.9051 65.6319 16.2341 65.1736 16.1918V16.1918C64.7153 16.1494 64.3688 15.7506 64.4027 15.2915L65.4346 1.29276C65.4805 0.670439 66.0241 0.20219 66.6454 0.259594V0.259594C67.2668 0.316998 67.7118 0.87653 67.6429 1.49673L66.093 15.4477ZM53.3853 15.8009C53.4615 16.254 53.1545 16.6824 52.7029 16.7671V16.7671C52.2514 16.8517 51.8126 16.563 51.7195 16.1131L48.876 2.36702C48.7495 1.75532 49.1411 1.15607 49.7551 1.04099V1.04099C50.369 0.925899 50.9541 1.34212 51.0577 1.95812L53.3853 15.8009ZM70.2805 16.1131C70.1875 16.563 69.7487 16.8517 69.2971 16.7671V16.7671C68.8455 16.6824 68.5386 16.254 68.6147 15.8009L70.9424 1.95812C71.0459 1.34212 71.631 0.925902 72.245 1.04099V1.04099C72.8589 1.15608 73.2505 1.75533 73.124 2.36703L70.2805 16.1131ZM49.2433 16.6981C49.3615 17.1422 49.0962 17.5976 48.6544 17.7242V17.7242C48.2125 17.8508 47.7481 17.6044 47.6133 17.165L43.4954 3.74733C43.3119 3.14944 43.6463 2.51528 44.2476 2.34302V2.34302C44.8488 2.17076 45.4707 2.53096 45.6317 3.13532L49.2433 16.6981ZM74.3867 17.165C74.2519 17.6044 73.7875 17.8508 73.3456 17.7242V17.7242C72.9038 17.5976 72.6385 17.1422 72.7567 16.6981L76.3683 3.13532C76.5293 2.53096 77.1512 2.17076 77.7524 2.34302V2.34302C78.3537 2.51528 78.6881 3.14944 78.5046 3.74734L74.3867 17.165ZM45.2038 17.9786C45.3633 18.4101 45.1419 18.8886 44.7135 19.0561V19.0561C44.2851 19.2237 43.799 19.0218 43.6235 18.5966L38.2681 5.62421C38.0294 5.04596 38.3033 4.383 38.886 4.15514V4.15514C39.4686 3.92729 40.1214 4.22783 40.3383 4.81463L45.2038 17.9786ZM78.3765 18.5966C78.201 19.0218 77.7149 19.2237 77.2865 19.0561V19.0561C76.8581 18.8886 76.6367 18.4101 76.7962 17.9786L81.6617 4.81463C81.8786 4.22783 82.5314 3.92729 83.1141 4.15514V4.15514C83.6967 4.383 83.9706 5.04596 83.7319 5.62422L78.3765 18.5966ZM41.2995 19.6326C41.4987 20.0476 41.3231 20.5449 40.9119 20.7519V20.7519C40.5007 20.9588 39.9974 20.8031 39.7828 20.3959L33.2411 7.97908C32.9497 7.42602 33.1607 6.7408 33.7191 6.45978V6.45978C34.2775 6.17876 34.9548 6.41693 35.2254 6.98047L41.2995 19.6326ZM82.2172 20.3959C82.0026 20.8031 81.4993 20.9588 81.0881 20.7519V20.7519C80.677 20.545 80.5013 20.0476 80.7005 19.6327L86.7746 6.98048C87.0452 6.41693 87.7225 6.17876 88.2809 6.45978V6.45978C88.8393 6.74081 89.0503 7.42602 88.7589 7.97908L82.2172 20.3959ZM37.5633 21.6448C37.8005 22.0398 37.6719 22.5516 37.2814 22.796V22.796C36.8909 23.0404 36.3747 22.9321 36.1231 22.5462L28.4577 10.7894C28.1166 10.2662 28.2632 9.56485 28.7927 9.23349V9.23349C29.3221 8.90214 30.0178 9.07627 30.3393 9.61175L37.5633 21.6448ZM85.8769 22.5462C85.6253 22.9321 85.1091 23.0404 84.7186 22.796V22.796C84.3282 22.5516 84.1996 22.0398 84.4367 21.6448L91.6607 9.61175C91.9822 9.07628 92.6779 8.90214 93.2073 9.2335V9.2335C93.7368 9.56486 93.8834 10.2662 93.5423 10.7894L85.8769 22.5462ZM34.0269 23.9966C34.2997 24.3683 34.219 24.8901 33.8525 25.1698V25.1698C33.4859 25.4494 32.9614 25.3893 32.6751 25.0279L23.9576 14.0282C23.57 13.5391 23.6514 12.8277 24.1476 12.4491V12.4491C24.6437 12.0706 25.3519 12.1797 25.7212 12.6828L34.0269 23.9966ZM89.3249 25.0279C89.0386 25.3893 88.5141 25.4494 88.1475 25.1698V25.1698C87.781 24.8901 87.7003 24.3683 87.9731 23.9966L96.2788 12.6828C96.6481 12.1797 97.3563 12.0706 97.8524 12.4491V12.4491C98.3486 12.8277 98.43 13.5391 98.0424 14.0282L89.3249 25.0279ZM30.72 26.6666C31.0261 27.0118 30.9938 27.5391 30.6544 27.8515V27.8515C30.3149 28.1638 29.7867 28.1521 29.4681 27.8184L19.7768 17.6662C19.3461 17.215 19.362 16.4993 19.821 16.077V16.077C20.28 15.6546 20.9947 15.6982 21.4085 16.165L30.72 26.6666ZM92.5319 27.8185C92.2133 28.1521 91.6851 28.1638 91.3456 27.8515V27.8515C91.0062 27.5391 90.9739 27.0118 91.28 26.6666L100.591 16.165C101.005 15.6982 101.72 15.6546 102.179 16.077V16.077C102.638 16.4993 102.654 17.215 102.223 17.6662L92.5319 27.8185ZM27.6712 29.6306C28.0078 29.9464 28.0241 30.4745 27.7146 30.8168V30.8168C27.4051 31.159 26.8778 31.1959 26.53 30.8927L15.9487 21.6718C15.4785 21.262 15.4289 20.5479 15.8471 20.0853V20.0853C16.2654 19.6228 16.9808 19.6008 17.4356 20.0275L27.6712 29.6306ZM95.47 30.8928C95.1222 31.1959 94.5949 31.159 94.2854 30.8168V30.8168C93.9759 30.4745 93.9922 29.9464 94.3288 29.6306L104.564 20.0275C105.019 19.6008 105.735 19.6228 106.153 20.0853V20.0853C106.571 20.5479 106.521 21.2621 106.051 21.6718L95.47 30.8928ZM24.9068 32.8623C25.2709 33.1459 25.3356 33.6702 25.0588 34.0393V34.0393C24.782 34.4085 24.2603 34.4936 23.8861 34.2237L12.5041 26.0116C11.9983 25.6467 11.8835 24.9398 12.2577 24.4408V24.4408C12.6318 23.9418 13.3421 23.8545 13.8341 24.2378L24.9068 32.8623ZM98.1139 34.2237C97.7397 34.4936 97.218 34.4085 96.9412 34.0393V34.0393C96.6644 33.6702 96.7291 33.1459 97.0932 32.8623L108.166 24.2378C108.658 23.8545 109.368 23.9418 109.742 24.4408V24.4408C110.117 24.9398 110.002 25.6467 109.496 26.0116L98.1139 34.2237ZM22.451 36.3334C22.8393 36.5822 22.9519 37.0981 22.7103 37.491V37.491C22.4686 37.8839 21.957 38.0167 21.5597 37.7823L9.47186 30.6502C8.93449 30.3332 8.75528 29.6394 9.08218 29.108V29.108C9.40908 28.5766 10.1085 28.4246 10.6338 28.7612L22.451 36.3334ZM100.44 37.7823C100.043 38.0167 99.5314 37.8839 99.2897 37.491V37.491C99.0481 37.0981 99.1607 36.5823 99.549 36.3334L111.366 28.7612C111.892 28.4246 112.591 28.5766 112.918 29.108V29.108C113.245 29.6394 113.066 30.3332 112.528 30.6502L100.44 37.7823ZM20.3251 40.014C20.7346 40.226 20.8942 40.729 20.6897 41.1424V41.1424C20.4853 41.5557 19.9882 41.7351 19.5712 41.5384L6.87827 35.5497C6.31369 35.2834 6.07132 34.6085 6.34808 34.049V34.049C6.62484 33.4894 7.30756 33.2739 7.86192 33.5609L20.3251 40.014ZM102.429 41.5384C102.012 41.7352 101.515 41.5557 101.31 41.1424V41.1424C101.106 40.7291 101.265 40.226 101.675 40.014L114.138 33.5609C114.692 33.2739 115.375 33.4894 115.652 34.049V34.049C115.929 34.6085 115.686 35.2834 115.122 35.5497L102.429 41.5384ZM18.5477 43.8731C18.975 44.0465 19.1804 44.5324 19.0149 44.9628V44.9628C18.8495 45.3932 18.3711 45.618 17.9377 45.4605L4.74676 40.6693C4.15966 40.456 3.85595 39.8058 4.08004 39.2228V39.2228C4.30412 38.6397 4.96435 38.3622 5.54315 38.597L18.5477 43.8731ZM104.062 45.4606C103.629 45.618 103.15 45.3933 102.985 44.9628V44.9628C102.82 44.5324 103.025 44.0465 103.452 43.8731L116.457 38.597C117.036 38.3622 117.696 38.6397 117.92 39.2228V39.2228C118.144 39.8058 117.84 40.456 117.253 40.6693L104.062 45.4606ZM17.1347 47.8793C17.576 48.0124 17.8253 48.4768 17.7004 48.9205V48.9205C17.5755 49.3642 17.1199 49.6322 16.674 49.5156L3.0962 45.9624C2.49222 45.8044 2.13001 45.1851 2.29922 44.5841V44.5841C2.46842 43.9832 3.09981 43.6463 3.69754 43.8266L17.1347 47.8793ZM105.326 49.5156C104.88 49.6323 104.425 49.3642 104.3 48.9205V48.9205C104.175 48.4768 104.424 48.0124 104.865 47.8793L118.302 43.8266C118.9 43.6463 119.532 43.9832 119.701 44.5841V44.5841C119.87 45.1851 119.508 45.8044 118.904 45.9625L105.326 49.5156ZM16.0972 52.0003C16.5487 52.092 16.8398 52.531 16.7563 52.9842V52.9842C16.6728 53.4373 16.244 53.7464 15.7894 53.6712L1.94 51.3828C1.32506 51.2811 0.908132 50.6985 1.02105 50.0856V50.0856C1.13396 49.4726 1.73053 49.0798 2.34131 49.204L16.0972 52.0003ZM106.211 53.6713C105.756 53.7464 105.327 53.4373 105.244 52.9842V52.9842C105.16 52.531 105.451 52.092 105.903 52.0003L119.659 49.204C120.269 49.0798 120.866 49.4726 120.979 50.0856V50.0856C121.092 50.6985 120.675 51.2811 120.06 51.3828L106.211 53.6713ZM15.4411 56.2006C15.9 56.2507 16.2308 56.6616 16.189 57.1213V57.1213C16.1473 57.581 15.7477 57.929 15.2873 57.8956L1.28708 56.8814C0.666117 56.8365 0.19827 56.2947 0.254562 55.6746V55.6746C0.310855 55.0546 0.868246 54.6095 1.48716 54.6771L15.4411 56.2006ZM106.713 57.8957C106.252 57.929 105.853 57.581 105.811 57.1213V57.1213C105.769 56.6616 106.1 56.2507 106.559 56.2006L120.513 54.6771C121.132 54.6095 121.689 55.0546 121.745 55.6747V55.6747C121.802 56.2947 121.334 56.8365 120.713 56.8814L106.713 57.8957ZM15.166 60.4508C15.6308 60.4592 16 60.8428 16 61.3077V61.3077V61.3077C16 61.7481 15.6498 62.1113 15.2094 62.1188L1.0798 62.3602C0.488491 62.3703 0 61.8991 0 61.3077V61.3077V61.3077C0 60.6835 0.516128 60.1866 1.14024 60.1979L15.166 60.4508ZM15.3157 64.5465C15.7539 64.5164 16.1329 64.8488 16.1706 65.2864V65.2864C16.2084 65.724 15.8915 66.1133 15.4546 66.1586L1.39764 67.616C0.808532 67.677 0.280644 67.2507 0.229773 66.6606V66.6606C0.178903 66.0706 0.625794 65.5569 1.21666 65.5162L15.3157 64.5465ZM15.7687 68.5628C16.202 68.4948 16.6077 68.7923 16.6833 69.2243V69.2243C16.7588 69.6563 16.4775 70.0714 16.0469 70.1545L2.17068 72.8309C1.58829 72.9432 1.02439 72.5637 0.922255 71.9795V71.9795C0.820121 71.3952 1.22138 70.8441 1.80735 70.7522L15.7687 68.5628ZM16.5688 72.5199C16.994 72.4144 17.4238 72.6747 17.5367 73.098V73.098C17.6497 73.5214 17.4062 73.9594 16.9849 74.0797L3.39642 77.9622C2.82587 78.1252 2.23055 77.7962 2.07757 77.2228V77.2228C1.9246 76.6495 2.27632 76.0654 2.85225 75.9225L16.5688 72.5199ZM17.7113 76.3893C18.1256 76.2469 18.5764 76.4682 18.7261 76.88V76.88C18.8758 77.2917 18.6718 77.7495 18.2627 77.9064L5.06764 82.9669C4.51353 83.1794 3.89148 82.9038 3.68873 82.346V82.346C3.48599 81.7883 3.78519 81.1756 4.34643 80.9827L17.7113 76.3893ZM19.189 80.1438C19.5893 79.9656 20.0579 80.1464 20.2431 80.5435V80.5435C20.4284 80.9406 20.2654 81.4149 19.8716 81.6071L7.17131 87.8056C6.63808 88.0659 5.99427 87.8457 5.74342 87.308V87.308C5.49256 86.7703 5.73687 86.1341 6.2789 85.8927L19.189 80.1438ZM20.9906 83.7555C21.374 83.5427 21.8567 83.6817 22.0761 84.0612V84.0612C22.2956 84.4408 22.1747 84.9279 21.7991 85.1539L9.68991 92.4401C9.18169 92.7459 8.52122 92.5827 8.22436 92.0692V92.0692C7.9275 91.5557 8.11516 90.901 8.63377 90.6132L20.9906 83.7555Z" fill="#FF7443"/>
<path d="M46.01 62.3C45.07 62.3 44.2367 62.1133 43.51 61.74C42.79 61.36 42.2233 60.8333 41.81 60.16C41.4033 59.4867 41.2 58.7067 41.2 57.82C41.2 56.9933 41.3933 56.2367 41.78 55.55C42.1667 54.8633 42.7433 54.3233 43.51 53.93L43.47 54.65C42.8567 54.27 42.3833 53.7967 42.05 53.23C41.7233 52.6567 41.56 52.0167 41.56 51.31C41.56 50.49 41.75 49.78 42.13 49.18C42.51 48.58 43.0333 48.1167 43.7 47.79C44.3733 47.4633 45.1433 47.3 46.01 47.3C46.8767 47.3 47.6433 47.4633 48.31 47.79C48.9767 48.1167 49.5 48.58 49.88 49.18C50.26 49.78 50.45 50.49 50.45 51.31C50.45 52.0167 50.2933 52.6533 49.98 53.22C49.6667 53.7867 49.1867 54.2633 48.54 54.65L48.51 53.95C49.27 54.3233 49.8467 54.8567 50.24 55.55C50.6333 56.2367 50.83 56.9933 50.83 57.82C50.83 58.7067 50.6233 59.4867 50.21 60.16C49.7967 60.8333 49.2267 61.36 48.5 61.74C47.7733 62.1133 46.9433 62.3 46.01 62.3ZM46.01 60.31C46.7833 60.31 47.41 60.1 47.89 59.68C48.37 59.2533 48.61 58.6333 48.61 57.82C48.61 57.0067 48.37 56.3867 47.89 55.96C47.4167 55.5267 46.79 55.31 46.01 55.31C45.23 55.31 44.6 55.5267 44.12 55.96C43.6467 56.3867 43.41 57.0067 43.41 57.82C43.41 58.6333 43.65 59.2533 44.13 59.68C44.61 60.1 45.2367 60.31 46.01 60.31ZM46.01 53.31C46.67 53.31 47.2033 53.1467 47.61 52.82C48.0233 52.4867 48.23 51.9833 48.23 51.31C48.23 50.6367 48.0233 50.1333 47.61 49.8C47.2033 49.46 46.67 49.29 46.01 49.29C45.35 49.29 44.8133 49.46 44.4 49.8C43.9867 50.1333 43.78 50.6367 43.78 51.31C43.78 51.9833 43.9867 52.4867 44.4 52.82C44.8133 53.1467 45.35 53.31 46.01 53.31ZM58.4513 62.3C57.4713 62.3 56.6046 62.0867 55.8513 61.66C55.0979 61.2267 54.5046 60.6333 54.0713 59.88C53.6446 59.1267 53.4313 58.26 53.4313 57.28V52.32C53.4313 51.34 53.6446 50.4733 54.0713 49.72C54.5046 48.9667 55.0979 48.3767 55.8513 47.95C56.6046 47.5167 57.4713 47.3 58.4513 47.3C59.4313 47.3 60.2979 47.5167 61.0513 47.95C61.8046 48.3767 62.3946 48.9667 62.8212 49.72C63.2546 50.4733 63.4713 51.34 63.4713 52.32V57.28C63.4713 58.26 63.2546 59.1267 62.8212 59.88C62.3946 60.6333 61.8046 61.2267 61.0513 61.66C60.2979 62.0867 59.4313 62.3 58.4513 62.3ZM58.4513 60.3C58.9846 60.3 59.4679 60.1733 59.9013 59.92C60.3413 59.66 60.6913 59.3133 60.9513 58.88C61.2113 58.44 61.3413 57.95 61.3413 57.41V52.17C61.3413 51.6367 61.2113 51.1533 60.9513 50.72C60.6913 50.28 60.3413 49.9333 59.9013 49.68C59.4679 49.42 58.9846 49.29 58.4513 49.29C57.9179 49.29 57.4313 49.42 56.9913 49.68C56.5579 49.9333 56.2113 50.28 55.9513 50.72C55.6913 51.1533 55.5613 51.6367 55.5613 52.17V57.41C55.5613 57.95 55.6913 58.44 55.9513 58.88C56.2113 59.3133 56.5579 59.66 56.9913 59.92C57.4313 60.1733 57.9179 60.3 58.4513 60.3ZM68.0633 62L66.6633 60.6L79.6733 47.6L81.0733 49.01L68.0633 62ZM78.0733 62.3C77.4133 62.3 76.8099 62.14 76.2633 61.82C75.7233 61.4933 75.2899 61.06 74.9633 60.52C74.6366 59.9733 74.4733 59.3667 74.4733 58.7C74.4733 58.0467 74.6399 57.4467 74.9733 56.9C75.3066 56.3533 75.7466 55.9167 76.2933 55.59C76.8399 55.2633 77.4333 55.1 78.0733 55.1C78.7333 55.1 79.3366 55.2633 79.8833 55.59C80.4299 55.91 80.8633 56.3433 81.1833 56.89C81.5099 57.43 81.6733 58.0333 81.6733 58.7C81.6733 59.3667 81.5099 59.9733 81.1833 60.52C80.8633 61.06 80.4299 61.4933 79.8833 61.82C79.3366 62.14 78.7333 62.3 78.0733 62.3ZM78.0733 60.49C78.3999 60.49 78.6966 60.41 78.9633 60.25C79.2366 60.0833 79.4533 59.8633 79.6133 59.59C79.7799 59.3167 79.8633 59.02 79.8633 58.7C79.8633 58.38 79.7799 58.0833 79.6133 57.81C79.4533 57.5367 79.2366 57.32 78.9633 57.16C78.6966 56.9933 78.3999 56.91 78.0733 56.91C77.7533 56.91 77.4566 56.9933 77.1833 57.16C76.9166 57.32 76.6999 57.5367 76.5333 57.81C76.3733 58.0833 76.2933 58.38 76.2933 58.7C76.2933 59.02 76.3733 59.3167 76.5333 59.59C76.6999 59.8633 76.9166 60.0833 77.1833 60.25C77.4566 60.41 77.7533 60.49 78.0733 60.49ZM69.6633 54.5C69.0033 54.5 68.3999 54.34 67.8533 54.02C67.3066 53.6933 66.8699 53.26 66.5433 52.72C66.2233 52.1733 66.0633 51.5667 66.0633 50.9C66.0633 50.2467 66.2299 49.6467 66.5633 49.1C66.8966 48.5533 67.3366 48.1167 67.8833 47.79C68.4299 47.4633 69.0233 47.3 69.6633 47.3C70.3233 47.3 70.9233 47.4633 71.4633 47.79C72.0099 48.11 72.4466 48.5433 72.7733 49.09C73.0999 49.63 73.2633 50.2333 73.2633 50.9C73.2633 51.5667 73.0999 52.1733 72.7733 52.72C72.4466 53.26 72.0099 53.6933 71.4633 54.02C70.9233 54.34 70.3233 54.5 69.6633 54.5ZM69.6633 52.69C69.9833 52.69 70.2799 52.61 70.5533 52.45C70.8266 52.2833 71.0433 52.0633 71.2033 51.79C71.3699 51.5167 71.4533 51.22 71.4533 50.9C71.4533 50.58 71.3699 50.2833 71.2033 50.01C71.0433 49.7367 70.8266 49.52 70.5533 49.36C70.2799 49.1933 69.9833 49.11 69.6633 49.11C69.3433 49.11 69.0466 49.1933 68.7733 49.36C68.5066 49.52 68.2899 49.7367 68.1233 50.01C67.9566 50.2833 67.8733 50.58 67.8733 50.9C67.8733 51.22 67.9566 51.5167 68.1233 51.79C68.2899 52.0633 68.5066 52.2833 68.7733 52.45C69.0399 52.61 69.3366 52.69 69.6633 52.69Z" fill="#191C32"/>
</svg>
