<svg width="26" height="26" viewBox="0 0 26 26" fill="none" xmlns="http://www.w3.org/2000/svg">
<circle cx="13" cy="13" r="13" fill="#FFD644" fill-opacity="0.2"/>
<path d="M11.6514 14.0664L12.8563 14.7621L10.4095 19L9.70722 17.4338L11.6514 14.0664Z" fill="#CE4444"/>
<path d="M11.6514 14.0664L10.4465 13.3708L7.99968 17.6087L9.70722 17.4338L11.6514 14.0664Z" fill="#983535"/>
<path d="M13.3702 14.0664L12.1653 14.7621L14.6121 19L15.3144 17.4338L13.3702 14.0664Z" fill="#983535"/>
<path d="M13.3702 14.0664L14.5751 13.3708L17.0219 17.6087L15.3144 17.4338L13.3702 14.0664Z" fill="#CE4444"/>
<circle cx="12.4735" cy="11.1483" r="4.64826" fill="url(#paint0_linear_99_1727)" stroke="#765C00"/>
<circle cx="12.4743" cy="11.1482" r="3.23809" fill="#A88300"/>
<mask id="mask0_99_1727" style="mask-type:alpha" maskUnits="userSpaceOnUse" x="9" y="8" width="7" height="7">
<circle cx="12.647" cy="11.4939" r="3.24563" fill="#C28B37"/>
</mask>
<g mask="url(#mask0_99_1727)">
<circle cx="12.4741" cy="11.1482" r="3.24563" fill="#C09525"/>
</g>
<path d="M9.07816 8.89038L9.72206 10.2906L11.0098 10.4657L10.1256 11.5439L10.3659 13.0911L9.07816 12.391L7.79038 13.0911L8.03291 11.5439L7.14648 10.4657L8.43427 10.2906L9.07816 8.89038Z" fill="url(#paint1_linear_99_1727)"/>
<defs>
<linearGradient id="paint0_linear_99_1727" x1="12.4735" y1="7" x2="12.4735" y2="15.2965" gradientUnits="userSpaceOnUse">
<stop stop-color="#FFC600"/>
<stop offset="1" stop-color="#FFDE69"/>
</linearGradient>
<linearGradient id="paint1_linear_99_1727" x1="9.07816" y1="8.89038" x2="9.07816" y2="13.0911" gradientUnits="userSpaceOnUse">
<stop stop-color="#FFFCDD"/>
<stop offset="1" stop-color="#FFE896"/>
</linearGradient>
</defs>
</svg>
