<svg width="22" height="22" viewBox="0 0 22 22" fill="none" xmlns="http://www.w3.org/2000/svg">
<path d="M16.3579 8.9772L11.2245 1.83337L5.83249 9.62902C5.25623 10.437 4.86606 11.3625 4.68999 12.3391C4.5139 13.3159 4.55623 14.3194 4.81391 15.2778C5.12569 16.4429 5.7517 17.5002 6.62359 18.3336C7.49551 19.167 8.57983 19.7448 9.75789 20.0038C10.2394 20.1112 10.7312 20.1658 11.2245 20.1667C12.3943 20.1695 13.5441 19.8639 14.5579 19.2805C15.5719 18.6969 16.414 17.8563 16.9992 16.8436C17.5845 15.8308 17.8923 14.6815 17.8917 13.5115C17.8917 12.1141 17.3885 10.6067 16.3577 8.97725L16.3579 8.9772ZM11.6972 17.7223C11.4549 17.7223 11.231 17.593 11.1097 17.3831C10.9886 17.1733 10.9886 16.9147 11.1097 16.7048C11.231 16.495 11.4549 16.3657 11.6972 16.3657C12.3036 16.3645 12.885 16.1236 13.3143 15.6954C13.7438 15.2671 13.9862 14.6864 13.9889 14.08C13.9889 13.8377 14.1182 13.6137 14.3281 13.4926C14.5379 13.3714 14.7965 13.3714 15.0064 13.4926C15.2163 13.6137 15.3456 13.8377 15.3456 14.08C15.3429 15.0463 14.9575 15.972 14.2737 16.6547C13.5899 17.3374 12.6634 17.7212 11.6972 17.7223V17.7223Z" fill="white"/>
</svg>
