<svg width="55" height="55" viewBox="0 0 55 55" fill="none" xmlns="http://www.w3.org/2000/svg">
<g clip-path="url(#clip0_101_1753)">
<g filter="url(#filter0_f_101_1753)">
<circle cx="0.981585" cy="0.982317" r="9.82143" fill="white" fill-opacity="0.4"/>
</g>
<path fill-rule="evenodd" clip-rule="evenodd" d="M17.8026 20.8817C15.9761 15.7246 19.8011 10.3121 25.272 10.3121H30.7385C35.9353 10.3121 39.7253 15.2303 38.4011 20.2554L37.7506 22.7239C39.8851 25.1075 41.1832 28.2558 41.1832 31.7073C41.1832 39.1471 35.152 45.1783 27.7122 45.1783C20.2724 45.1783 14.2412 39.1471 14.2412 31.7073C14.2412 27.9588 15.7723 24.5679 18.2432 22.1258L17.8026 20.8817ZM35.336 19.4478L35.0781 20.4267C32.9612 19.0416 30.4308 18.2363 27.7122 18.2363C25.2207 18.2363 22.8873 18.9127 20.8854 20.0918L20.7904 19.8235C19.6945 16.7293 21.9895 13.4818 25.272 13.4818H30.7385C33.8566 13.4818 36.1306 16.4326 35.336 19.4478ZM27.7122 42.0086C33.4015 42.0086 38.0135 37.3966 38.0135 31.7073C38.0135 26.018 33.4015 21.406 27.7122 21.406C22.0229 21.406 17.4109 26.018 17.4109 31.7073C17.4109 37.3966 22.0229 42.0086 27.7122 42.0086ZM23.9081 33.134C24.7833 33.134 25.4929 32.4244 25.4929 31.5492C25.4929 30.6739 24.7833 29.9643 23.9081 29.9643C23.0328 29.9643 22.3232 30.6739 22.3232 31.5492C22.3232 32.4244 23.0328 33.134 23.9081 33.134ZM29.9314 31.5492C29.9314 32.4244 29.2218 33.134 28.3465 33.134C27.4713 33.134 26.7617 32.4244 26.7617 31.5492C26.7617 30.6739 27.4713 29.9643 28.3465 29.9643C29.2218 29.9643 29.9314 30.6739 29.9314 31.5492ZM32.784 33.134C33.6593 33.134 34.3689 32.4244 34.3689 31.5492C34.3689 30.6739 33.6593 29.9643 32.784 29.9643C31.9088 29.9643 31.1992 30.6739 31.1992 31.5492C31.1992 32.4244 31.9088 33.134 32.784 33.134Z" fill="#3b9dff"/>
</g>
<defs>
<filter id="filter0_f_101_1753" x="-30.447" y="-30.4463" width="62.8572" height="62.8571" filterUnits="userSpaceOnUse" color-interpolation-filters="sRGB">
<feFlood flood-opacity="0" result="BackgroundImageFix"/>
<feBlend mode="normal" in="SourceGraphic" in2="BackgroundImageFix" result="shape"/>
<feGaussianBlur stdDeviation="10.8036" result="effect1_foregroundBlur_101_1753"/>
</filter>
<clipPath id="clip0_101_1753">
<rect width="55" height="55" rx="4.91071" fill="white"/>
</clipPath>
</defs>
</svg>
