<svg width="22" height="22" viewBox="0 0 22 22" fill="none" xmlns="http://www.w3.org/2000/svg">
<path d="M14.3126 7.16715C10.2389 4.46377 12.0824 1.83337 12.0824 1.83337C8.12218 4.11357 7.24552 7.59384 8.21564 11.9941C6.78883 10.8373 6.58215 9.46723 6.62888 7.66045C4.8121 9.60391 4.48541 11.6606 4.60542 13.8876C4.72029 16.1764 6.01223 18.2422 8.01986 19.3474C10.0273 20.4524 12.4639 20.4389 14.4595 19.3116C16.4547 18.1843 17.7238 16.1041 17.8131 13.8141C17.9531 10.904 16.7197 8.76382 14.3128 7.1673L14.3126 7.16715ZM11.6457 18.6345C10.7358 18.6378 9.84568 18.3697 9.08903 17.8643C9.269 17.882 9.44898 17.8911 9.62896 17.8911C11.1892 17.8841 12.6834 17.26 13.7852 16.1553C14.8869 15.0503 15.5068 13.5545 15.5094 11.9942C15.5094 11.8142 15.5005 11.6342 15.4826 11.4543V11.454C15.9884 12.2048 16.2598 13.0889 16.2627 13.9942C16.2644 15.2231 15.7779 16.4025 14.9103 17.2726C14.0425 18.1429 12.8646 18.6329 11.6356 18.6345H11.6457Z" fill="white"/>
</svg>
