<svg width="22" height="22" viewBox="0 0 22 22" fill="none" xmlns="http://www.w3.org/2000/svg">
<path d="M13.4523 5.2441C14.3886 5.2441 15.1547 4.47666 15.1547 3.53868C15.1547 2.60069 14.3886 1.83325 13.4523 1.83325C12.516 1.83325 11.75 2.60069 11.75 3.53868C11.75 4.47666 12.516 5.2441 13.4523 5.2441ZM10.7541 15.4767L11.2393 13.3449L13.0267 15.0503V19.3139C13.0267 19.7829 13.4098 20.1666 13.8779 20.1666C14.346 20.1666 14.7291 19.7829 14.7291 19.3139V14.5046C14.7291 14.0356 14.5418 13.5922 14.2014 13.2681L12.9416 12.0658L13.4523 9.50767C14.4115 10.6062 15.7246 11.3334 17.1634 11.5627C17.6741 11.6395 18.1337 11.2302 18.1337 10.71C18.1337 10.2922 17.8273 9.94255 17.4102 9.87434C16.1165 9.66116 15.044 8.89372 14.4737 7.88751L13.6226 6.52317C13.2821 6.01155 12.7714 5.67046 12.1756 5.67046C11.9202 5.67046 11.75 5.75573 11.4946 5.75573L8.10701 7.18829C7.79865 7.32034 7.53582 7.54026 7.35119 7.82073C7.16657 8.1012 7.0683 8.42984 7.06859 8.76581V10.7867C7.06859 11.2557 7.45162 11.6395 7.91976 11.6395C8.3879 11.6395 8.77092 11.2557 8.77092 10.7867V8.74023L10.303 8.14333L8.94115 15.0503L5.60459 14.3681C5.14496 14.2743 4.69384 14.5728 4.60021 15.0333V15.0674C4.50659 15.5278 4.80449 15.9798 5.26412 16.0736L8.76241 16.7728C9.19752 16.8593 9.64916 16.7723 10.0212 16.5302C10.3932 16.2881 10.6562 15.9101 10.7541 15.4767V15.4767Z" fill="white"/>
</svg>
