<svg width="28" height="36" viewBox="0 0 28 36" fill="none" xmlns="http://www.w3.org/2000/svg">
<path fill-rule="evenodd" clip-rule="evenodd" d="M3.80257 10.8817C1.97612 5.72465 5.80113 0.312134 11.272 0.312134H16.7385C21.9353 0.312134 25.7253 5.23025 24.4011 10.2554L23.7506 12.7239C25.8851 15.1075 27.1832 18.2558 27.1832 21.7073C27.1832 29.1471 21.152 35.1783 13.7122 35.1783C6.27237 35.1783 0.241211 29.1471 0.241211 21.7073C0.241211 17.9588 1.77229 14.5679 4.24319 12.1258L3.80257 10.8817ZM21.336 9.44775L21.0781 10.4267C18.9612 9.04161 16.4308 8.23631 13.7122 8.23631C11.2207 8.23631 8.88728 8.91267 6.88538 10.0918L6.79036 9.82351C5.69449 6.72928 7.9895 3.48178 11.272 3.48178H16.7385C19.8566 3.48178 22.1306 6.43264 21.336 9.44775ZM13.7122 32.0086C19.4015 32.0086 24.0135 27.3966 24.0135 21.7073C24.0135 16.018 19.4015 11.406 13.7122 11.406C8.02292 11.406 3.41085 16.018 3.41085 21.7073C3.41085 27.3966 8.02292 32.0086 13.7122 32.0086ZM9.90806 23.134C10.7833 23.134 11.4929 22.4244 11.4929 21.5492C11.4929 20.6739 10.7833 19.9643 9.90806 19.9643C9.03279 19.9643 8.32324 20.6739 8.32324 21.5492C8.32324 22.4244 9.03279 23.134 9.90806 23.134ZM15.9314 21.5492C15.9314 22.4244 15.2218 23.134 14.3465 23.134C13.4713 23.134 12.7617 22.4244 12.7617 21.5492C12.7617 20.6739 13.4713 19.9643 14.3465 19.9643C15.2218 19.9643 15.9314 20.6739 15.9314 21.5492ZM18.784 23.134C19.6593 23.134 20.3689 22.4244 20.3689 21.5492C20.3689 20.6739 19.6593 19.9643 18.784 19.9643C17.9088 19.9643 17.1992 20.6739 17.1992 21.5492C17.1992 22.4244 17.9088 23.134 18.784 23.134Z" fill="#FF844B"/>
</svg>
